<svg width="144" height="144" viewBox="0 0 144 144" fill="none" xmlns="http://www.w3.org/2000/svg">
<g clip-path="url(#clip0_1001_2)">
<path d="M144 0H0V120H144V0Z" fill="#AC0600"/>
<path fill-rule="evenodd" clip-rule="evenodd" d="M25 46V48.7417H27.8549V72.2578H25V75H38.3364V72.2578H34.4619V61.9957H39.8452V64.4884H42.8634V56.5114H39.8452V59.0042H34.4619V48.9912H42.9858V53.7278H47.7167V46H25Z" fill="white"/>
<path fill-rule="evenodd" clip-rule="evenodd" d="M50.85 46V48.7417H53.7551V72.2578H50.85V75H63.3833V72.2578H60.4782V48.7417H63.3833V46H50.85Z" fill="white"/>
<path d="M66.5167 72.2578H69.4157V48.7419H66.5167V46H80.018C87.9281 46 93.9333 51.2766 93.9333 60.5C93.9333 69.7234 87.9281 75 80.018 75H66.5167V72.2578ZM76.1249 72.0087H78.8168C84.3665 72.0087 86.5614 69.9726 86.5614 64.3223V56.6777C86.5614 51.0271 84.3665 48.9913 78.8168 48.9913H76.1249V72.0087Z" fill="white"/>
<path fill-rule="evenodd" clip-rule="evenodd" d="M95.5 72.2578H98.4115V48.7419H95.5V46H118.667V53.7278H113.843V48.9913H105.15V58.3809H110.64V55.8881H113.718V63.8653H110.64V61.3726H105.15V72.0087H114.175V66.4411H119V75H95.5V72.2578Z" fill="white"/>
<path d="M144 120H0V144H144V120Z" fill="#1D1C1C"/>
<path fill-rule="evenodd" clip-rule="evenodd" d="M29.776 129.118H27.13V137H25.002V129.118H22.356V127.228H29.776V129.118ZM39.8267 137H37.6147L36.9147 134.676H33.6527L32.9527 137H30.7967L34.0167 127.228H36.6487L39.8267 137ZM36.3967 132.87L35.3047 129.16H35.2347L34.1567 132.87H36.3967ZM41.6735 137L44.8095 131.946L41.8275 127.228H44.3055L46.2095 130.532H46.2515L48.1835 127.228H50.4795L47.4695 131.988L50.6475 137H48.1835L46.0695 133.402H46.0275L43.9695 137H41.6735ZM64.2669 137L63.5389 136.202C62.9229 136.706 62.0969 137.168 60.7389 137.168C58.5829 137.168 57.4209 136.006 57.4209 134.438C57.4209 133.108 58.2469 132.38 59.3809 131.722C58.8349 131.106 58.2889 130.294 58.2889 129.398C58.2889 128.11 59.4229 127.06 61.2149 127.06C62.8109 127.06 64.0289 127.872 64.0289 129.3C64.0289 130.532 63.1469 131.288 62.0829 131.918L63.5949 133.556C63.8329 132.954 63.9589 132.268 64.0009 131.61H66.3389V133.332H65.4569C65.3029 133.906 65.0929 134.438 64.8269 134.886L66.7729 137H64.2669ZM61.1589 128.642C60.6549 128.642 60.2629 128.936 60.2629 129.44V129.496C60.2629 129.86 60.4869 130.168 61.0609 130.812C61.7189 130.42 62.0549 130.056 62.0549 129.496V129.44C62.0549 128.936 61.6629 128.642 61.1589 128.642ZM61.0469 135.446C61.6069 135.446 62.0829 135.306 62.4609 135.054L60.4029 132.828C59.7729 133.206 59.5349 133.57 59.5349 134.074V134.214C59.5349 134.928 60.0389 135.446 61.0469 135.446ZM79.5944 137H73.7424V127.228H75.8704V135.11H79.5944V137ZM89.0851 137H82.4351V127.228H89.0851V129.118H84.5631V131.12H88.4411V132.996H84.5631V135.11H89.0851V137ZM98.4078 137V135.446H98.3378C98.1978 136.426 97.3018 137.168 95.8318 137.168C93.5918 137.168 91.8278 135.432 91.8278 132.156C91.8278 128.866 93.6058 127.06 96.2518 127.06C97.9878 127.06 99.2898 127.83 100.018 129.328L98.2818 130.322C97.9878 129.566 97.3858 128.95 96.2518 128.95C94.9358 128.95 94.0818 129.706 94.0818 131.33V132.898C94.0818 134.522 94.9358 135.278 96.2518 135.278C97.3158 135.278 98.1698 134.774 98.1698 133.822V133.332H96.3498V131.554H100.2V137H98.4078ZM111.777 137H109.565L108.865 134.676H105.603L104.903 137H102.747L105.967 127.228H108.599L111.777 137ZM108.347 132.87L107.255 129.16H107.185L106.107 132.87H108.347ZM120.259 137H114.407V127.228H116.535V135.11H120.259V137Z" fill="white"/>
<rect y="120" width="144" height="24" fill="#0E0D0D"/>
<path d="M22.0547 137C21.9714 137 21.9062 136.961 21.8594 136.883C21.8125 136.799 21.7891 136.706 21.7891 136.602C21.7891 136.482 21.8099 136.406 21.8516 136.375C21.888 136.344 21.9609 136.323 22.0703 136.312C22.2005 136.297 22.3411 136.289 22.4922 136.289C22.6484 136.284 22.7943 136.245 22.9297 136.172C23.0703 136.094 23.1823 135.94 23.2656 135.711L26.8438 125.742H28.0938L31.5703 135.711C31.6536 135.94 31.763 136.094 31.8984 136.172C32.0339 136.245 32.1771 136.284 32.3281 136.289C32.4844 136.289 32.625 136.297 32.75 136.312C32.8594 136.323 32.9323 136.344 32.9688 136.375C33.0104 136.406 33.0312 136.482 33.0312 136.602C33.0312 136.659 33.0078 136.74 32.9609 136.844C32.9193 136.948 32.8542 137 32.7656 137H28.8516C28.763 137 28.6953 136.948 28.6484 136.844C28.6068 136.74 28.5859 136.659 28.5859 136.602C28.5859 136.43 28.6719 136.333 28.8438 136.312C29.1615 136.297 29.4193 136.284 29.6172 136.273C29.8151 136.263 29.9141 136.198 29.9141 136.078C29.9141 136.042 29.9062 136.005 29.8906 135.969L28.8359 132.805L29.3047 133.141H24.8438L25.3047 132.805L24.2422 135.969C24.2318 135.995 24.2266 136.026 24.2266 136.062C24.2266 136.193 24.3359 136.263 24.5547 136.273C24.7786 136.279 25.0495 136.292 25.3672 136.312C25.5391 136.333 25.625 136.43 25.625 136.602C25.625 136.659 25.6016 136.74 25.5547 136.844C25.513 136.948 25.4479 137 25.3594 137H22.0547ZM25.3125 132.805L25.0703 132.469H29.0703L28.8359 132.805L27.1484 127.727L25.3125 132.805ZM33.4844 137C33.3958 137 33.3281 136.948 33.2812 136.844C33.2396 136.74 33.2188 136.659 33.2188 136.602C33.2188 136.43 33.3047 136.333 33.4766 136.312C33.6432 136.297 33.8203 136.271 34.0078 136.234C34.1953 136.198 34.3542 136.135 34.4844 136.047C34.6198 135.953 34.6875 135.823 34.6875 135.656V127.359C34.6875 127.135 34.6146 126.974 34.4688 126.875C34.3281 126.776 34.1589 126.711 33.9609 126.68C33.7682 126.643 33.5911 126.617 33.4297 126.602C33.3203 126.591 33.2448 126.57 33.2031 126.539C33.1667 126.503 33.1484 126.427 33.1484 126.312C33.1484 126.255 33.1693 126.174 33.2109 126.07C33.2578 125.966 33.3255 125.914 33.4141 125.914H36.0547L42.125 134.555H42.2188V127.359C42.2188 127.135 42.1328 126.974 41.9609 126.875C41.7943 126.776 41.6016 126.711 41.3828 126.68C41.1641 126.643 40.974 126.617 40.8125 126.602C40.7031 126.591 40.6276 126.57 40.5859 126.539C40.5495 126.503 40.5312 126.427 40.5312 126.312C40.5312 126.255 40.5521 126.174 40.5938 126.07C40.6406 125.966 40.7083 125.914 40.7969 125.914H44.3516C44.4401 125.914 44.5052 125.966 44.5469 126.07C44.5938 126.174 44.6172 126.255 44.6172 126.312C44.6172 126.484 44.5312 126.581 44.3594 126.602C44.2031 126.617 44.0156 126.643 43.7969 126.68C43.5833 126.711 43.3958 126.776 43.2344 126.875C43.0729 126.974 42.9922 127.135 42.9922 127.359V136.117C42.9922 136.216 42.9974 136.299 43.0078 136.367C43.0182 136.43 43.0286 136.536 43.0391 136.688C43.0547 136.906 43.0078 137.052 42.8984 137.125C42.7891 137.198 42.6797 137.234 42.5703 137.234C42.3828 137.234 42.2422 137.177 42.1484 137.062L35.5938 127.984H35.4609V135.555C35.4609 135.779 35.5391 135.94 35.6953 136.039C35.8516 136.138 36.0339 136.203 36.2422 136.234C36.4505 136.266 36.6328 136.292 36.7891 136.312C36.8984 136.323 36.9714 136.344 37.0078 136.375C37.0495 136.406 37.0703 136.482 37.0703 136.602C37.0703 136.659 37.0469 136.74 37 136.844C36.9583 136.948 36.8932 137 36.8047 137H33.4844ZM45.0703 137C44.987 137 44.9219 136.961 44.875 136.883C44.8281 136.799 44.8047 136.706 44.8047 136.602C44.8047 136.482 44.8255 136.406 44.8672 136.375C44.9036 136.344 44.9766 136.323 45.0859 136.312C45.2161 136.297 45.3568 136.289 45.5078 136.289C45.6641 136.284 45.8099 136.245 45.9453 136.172C46.0859 136.094 46.1979 135.94 46.2812 135.711L49.8594 125.742H51.1094L54.5859 135.711C54.6693 135.94 54.7786 136.094 54.9141 136.172C55.0495 136.245 55.1927 136.284 55.3438 136.289C55.5 136.289 55.6406 136.297 55.7656 136.312C55.875 136.323 55.9479 136.344 55.9844 136.375C56.026 136.406 56.0469 136.482 56.0469 136.602C56.0469 136.659 56.0234 136.74 55.9766 136.844C55.9349 136.948 55.8698 137 55.7812 137H51.8672C51.7786 137 51.7109 136.948 51.6641 136.844C51.6224 136.74 51.6016 136.659 51.6016 136.602C51.6016 136.43 51.6875 136.333 51.8594 136.312C52.1771 136.297 52.4349 136.284 52.6328 136.273C52.8307 136.263 52.9297 136.198 52.9297 136.078C52.9297 136.042 52.9219 136.005 52.9062 135.969L51.8516 132.805L52.3203 133.141H47.8594L48.3203 132.805L47.2578 135.969C47.2474 135.995 47.2422 136.026 47.2422 136.062C47.2422 136.193 47.3516 136.263 47.5703 136.273C47.7943 136.279 48.0651 136.292 48.3828 136.312C48.5547 136.333 48.6406 136.43 48.6406 136.602C48.6406 136.659 48.6172 136.74 48.5703 136.844C48.5286 136.948 48.4635 137 48.375 137H45.0703ZM48.3281 132.805L48.0859 132.469H52.0859L51.8516 132.805L50.1641 127.727L48.3281 132.805ZM56.8359 137C56.7474 137 56.6797 136.948 56.6328 136.844C56.5911 136.74 56.5703 136.659 56.5703 136.602C56.5703 136.43 56.6562 136.333 56.8281 136.312C57.0781 136.292 57.3151 136.247 57.5391 136.18C57.7682 136.107 57.8828 135.984 57.8828 135.812L57.8906 127.359C57.8906 127.135 57.8307 126.974 57.7109 126.875C57.5911 126.776 57.4453 126.711 57.2734 126.68C57.1068 126.643 56.9427 126.617 56.7812 126.602C56.6719 126.591 56.5964 126.57 56.5547 126.539C56.5182 126.503 56.5 126.427 56.5 126.312C56.5 126.255 56.5208 126.174 56.5625 126.07C56.6094 125.966 56.6771 125.914 56.7656 125.914H60.7734C60.862 125.914 60.9271 125.966 60.9688 126.07C61.0156 126.174 61.0391 126.255 61.0391 126.312C61.0391 126.505 60.9531 126.602 60.7812 126.602C60.6094 126.602 60.4219 126.622 60.2188 126.664C60.0156 126.706 59.8411 126.781 59.6953 126.891C59.5547 126.995 59.4844 127.143 59.4844 127.336L59.4766 135.617C59.4766 135.872 59.5651 136.036 59.7422 136.109C59.9193 136.177 60.1042 136.211 60.2969 136.211H62.5234C62.7682 136.211 63.0026 136.07 63.2266 135.789C63.4557 135.503 63.6641 135.154 63.8516 134.742C64.0391 134.331 64.1953 133.938 64.3203 133.562C64.3516 133.469 64.401 133.404 64.4688 133.367C64.5365 133.326 64.612 133.305 64.6953 133.305C64.7943 133.305 64.8724 133.328 64.9297 133.375C64.9922 133.417 65.0182 133.482 65.0078 133.57L64.625 137H56.8359ZM68.2188 137C68.1302 137 68.0625 136.948 68.0156 136.844C67.974 136.74 67.9531 136.659 67.9531 136.602C67.9531 136.435 68.0651 136.339 68.2891 136.312C68.4661 136.297 68.6536 136.286 68.8516 136.281C69.0495 136.276 69.2188 136.242 69.3594 136.18C69.5052 136.117 69.5781 135.995 69.5781 135.812V132.828L66.5234 127.203C66.3464 126.88 66.1536 126.693 65.9453 126.641C65.737 126.583 65.5365 126.544 65.3438 126.523C65.2344 126.513 65.1615 126.492 65.125 126.461C65.0833 126.424 65.0625 126.349 65.0625 126.234C65.0625 126.177 65.0859 126.109 65.1328 126.031C65.1797 125.953 65.2448 125.914 65.3281 125.914H69.4062C69.4948 125.914 69.5599 125.953 69.6016 126.031C69.6484 126.109 69.6719 126.177 69.6719 126.234C69.6719 126.406 69.5859 126.503 69.4141 126.523C69.1068 126.539 68.8307 126.565 68.5859 126.602C68.3464 126.633 68.2266 126.708 68.2266 126.828C68.2266 126.844 68.2292 126.862 68.2344 126.883C68.2396 126.898 68.2474 126.919 68.2578 126.945L70.9219 132.32H70.4844L73.2266 126.945C73.2474 126.904 73.2578 126.862 73.2578 126.82C73.2422 126.706 73.1172 126.633 72.8828 126.602C72.6484 126.565 72.3776 126.539 72.0703 126.523C71.8984 126.503 71.8125 126.406 71.8125 126.234C71.8125 126.177 71.8333 126.109 71.875 126.031C71.9219 125.953 71.9896 125.914 72.0781 125.914H75.3203C75.4089 125.914 75.474 125.953 75.5156 126.031C75.5625 126.109 75.5859 126.177 75.5859 126.234C75.5859 126.349 75.5651 126.424 75.5234 126.461C75.487 126.492 75.4141 126.513 75.3047 126.523C75.112 126.544 74.9115 126.583 74.7031 126.641C74.4948 126.693 74.3021 126.88 74.125 127.203L71.1953 132.57V135.711C71.1953 135.935 71.2708 136.083 71.4219 136.156C71.5729 136.229 71.7526 136.268 71.9609 136.273C72.1745 136.279 72.3672 136.292 72.5391 136.312C72.6484 136.323 72.7344 136.344 72.7969 136.375C72.8646 136.406 72.8984 136.482 72.8984 136.602C72.8984 136.659 72.875 136.74 72.8281 136.844C72.7865 136.948 72.7214 137 72.6328 137H68.2188ZM77.7969 137C77.7083 137 77.6406 136.948 77.5938 136.844C77.5521 136.74 77.5312 136.659 77.5312 136.602C77.5312 136.43 77.6172 136.333 77.7891 136.312C78.0339 136.297 78.2786 136.271 78.5234 136.234C78.7734 136.193 78.9792 136.122 79.1406 136.023C79.3073 135.919 79.3906 135.771 79.3906 135.578L79.3984 126.688H77.4141C77.1901 126.688 77.0052 126.792 76.8594 127C76.7135 127.208 76.5964 127.461 76.5078 127.758C76.4245 128.049 76.362 128.331 76.3203 128.602C76.2839 128.872 76.2604 129.07 76.25 129.195C76.2396 129.294 76.2083 129.362 76.1562 129.398C76.1094 129.435 76.0443 129.453 75.9609 129.453C75.9036 129.453 75.8203 129.432 75.7109 129.391C75.6068 129.344 75.5573 129.276 75.5625 129.188C75.5729 128.932 75.5859 128.622 75.6016 128.258C75.6224 127.888 75.6458 127.526 75.6719 127.172C75.6979 126.812 75.724 126.513 75.75 126.273C75.776 126.034 75.8047 125.914 75.8359 125.914H84.5703C84.6016 125.914 84.6302 126.034 84.6562 126.273C84.6823 126.513 84.7083 126.812 84.7344 127.172C84.7604 127.526 84.7812 127.888 84.7969 128.258C84.8177 128.622 84.8307 128.932 84.8359 129.188C84.8359 129.276 84.7839 129.344 84.6797 129.391C84.5755 129.432 84.4948 129.453 84.4375 129.453C84.3542 129.453 84.2865 129.435 84.2344 129.398C84.1875 129.362 84.1589 129.294 84.1484 129.195C84.138 129.07 84.112 128.872 84.0703 128.602C84.0339 128.331 83.974 128.049 83.8906 127.758C83.8073 127.461 83.6927 127.208 83.5469 127C83.401 126.792 83.2161 126.688 82.9922 126.688H81.0156L81.0078 135.555C81.0078 135.779 81.0938 135.943 81.2656 136.047C81.4427 136.146 81.6536 136.211 81.8984 136.242C82.1484 136.273 82.3776 136.297 82.5859 136.312C82.6953 136.323 82.7682 136.344 82.8047 136.375C82.8464 136.406 82.8672 136.482 82.8672 136.602C82.8672 136.659 82.8438 136.74 82.7969 136.844C82.7552 136.948 82.6901 137 82.6016 137H77.7969ZM86.3359 137C86.2474 137 86.1797 136.948 86.1328 136.844C86.0911 136.74 86.0703 136.659 86.0703 136.602C86.0703 136.424 86.1562 136.328 86.3281 136.312C86.5781 136.292 86.8281 136.247 87.0781 136.18C87.3333 136.107 87.4609 135.984 87.4609 135.812L87.4688 127.359C87.4688 127.135 87.401 126.974 87.2656 126.875C87.1354 126.776 86.9792 126.711 86.7969 126.68C86.6146 126.643 86.4427 126.617 86.2812 126.602C86.1719 126.591 86.0964 126.57 86.0547 126.539C86.0182 126.503 86 126.427 86 126.312C86 126.255 86.0208 126.174 86.0625 126.07C86.1094 125.966 86.1771 125.914 86.2656 125.914H90.2109C90.2995 125.914 90.3646 125.966 90.4062 126.07C90.4531 126.174 90.4766 126.255 90.4766 126.312C90.4766 126.49 90.3906 126.586 90.2188 126.602C89.9688 126.622 89.7161 126.669 89.4609 126.742C89.2109 126.81 89.0859 126.93 89.0859 127.102L89.0781 135.555C89.0781 135.779 89.1432 135.94 89.2734 136.039C89.4089 136.138 89.5677 136.203 89.75 136.234C89.9375 136.266 90.1094 136.292 90.2656 136.312C90.375 136.323 90.4479 136.344 90.4844 136.375C90.526 136.406 90.5469 136.482 90.5469 136.602C90.5469 136.659 90.5234 136.74 90.4766 136.844C90.4349 136.948 90.3698 137 90.2812 137H86.3359ZM97.2656 137.234C96.6406 137.234 96.0104 137.141 95.375 136.953C94.7448 136.76 94.1667 136.445 93.6406 136.008C93.1146 135.57 92.6927 134.982 92.375 134.242C92.0573 133.503 91.8984 132.583 91.8984 131.484C91.8984 130.453 92.0599 129.57 92.3828 128.836C92.7109 128.096 93.1354 127.495 93.6562 127.031C94.1771 126.568 94.7396 126.227 95.3438 126.008C95.9531 125.789 96.5391 125.68 97.1016 125.68C97.7943 125.68 98.3698 125.721 98.8281 125.805C99.2917 125.883 99.6693 125.977 99.9609 126.086C100.258 126.19 100.497 126.284 100.68 126.367L100.852 128.812C100.862 128.901 100.82 128.977 100.727 129.039C100.633 129.096 100.555 129.125 100.492 129.125C100.477 129.125 100.461 129.128 100.445 129.133C100.435 129.133 100.422 129.133 100.406 129.133C100.339 129.133 100.279 129.117 100.227 129.086C100.174 129.049 100.143 128.99 100.133 128.906C100.013 128.469 99.8281 128.062 99.5781 127.688C99.3333 127.307 99.0078 127.003 98.6016 126.773C98.1953 126.544 97.6901 126.43 97.0859 126.43C96.7526 126.43 96.401 126.484 96.0312 126.594C95.6615 126.698 95.3151 126.917 94.9922 127.25C94.6745 127.583 94.4141 128.089 94.2109 128.766C94.0078 129.438 93.9062 130.344 93.9062 131.484C93.9062 132.568 94.0182 133.44 94.2422 134.102C94.4714 134.763 94.7604 135.268 95.1094 135.617C95.4635 135.961 95.8307 136.193 96.2109 136.312C96.5964 136.432 96.9453 136.492 97.2578 136.492C97.8516 136.492 98.3385 136.38 98.7188 136.156C99.1042 135.927 99.4062 135.625 99.625 135.25C99.8438 134.87 99.9948 134.456 100.078 134.008C100.099 133.904 100.13 133.836 100.172 133.805C100.219 133.768 100.284 133.75 100.367 133.75C100.43 133.75 100.523 133.773 100.648 133.82C100.779 133.862 100.844 133.927 100.844 134.016L100.594 136.156C100.589 136.229 100.443 136.354 100.156 136.531C99.8698 136.703 99.4766 136.862 98.9766 137.008C98.4818 137.159 97.9115 137.234 97.2656 137.234ZM106.562 137.234C105.964 137.234 105.503 137.159 105.18 137.008C104.862 136.857 104.615 136.737 104.438 136.648C104.292 136.57 104.172 136.503 104.078 136.445C103.984 136.388 103.893 136.359 103.805 136.359C103.768 136.359 103.729 136.37 103.688 136.391C103.646 136.406 103.604 136.44 103.562 136.492C103.469 136.607 103.372 136.69 103.273 136.742C103.174 136.789 103.086 136.812 103.008 136.812C102.909 136.812 102.828 136.779 102.766 136.711C102.708 136.638 102.682 136.547 102.688 136.438C102.698 136.333 102.703 136.227 102.703 136.117C102.703 136.008 102.703 135.898 102.703 135.789C102.703 135.273 102.674 134.797 102.617 134.359C102.56 133.922 102.531 133.581 102.531 133.336C102.531 133.201 102.57 133.102 102.648 133.039C102.732 132.971 102.82 132.938 102.914 132.938C103.138 132.938 103.276 133.047 103.328 133.266C103.359 133.396 103.411 133.583 103.484 133.828C103.562 134.068 103.706 134.411 103.914 134.859C104.102 135.255 104.339 135.578 104.625 135.828C104.917 136.073 105.221 136.253 105.539 136.367C105.857 136.482 106.154 136.539 106.43 136.539C106.747 136.539 107.055 136.49 107.352 136.391C107.648 136.292 107.893 136.107 108.086 135.836C108.284 135.565 108.383 135.174 108.383 134.664C108.383 134.279 108.263 133.935 108.023 133.633C107.789 133.326 107.482 133.047 107.102 132.797C106.727 132.547 106.331 132.318 105.914 132.109C105.555 131.927 105.198 131.732 104.844 131.523C104.495 131.31 104.174 131.07 103.883 130.805C103.596 130.534 103.365 130.224 103.188 129.875C103.01 129.521 102.917 129.112 102.906 128.648C102.891 128.112 102.982 127.656 103.18 127.281C103.378 126.901 103.638 126.594 103.961 126.359C104.284 126.125 104.638 125.953 105.023 125.844C105.409 125.734 105.781 125.68 106.141 125.68C106.557 125.68 106.904 125.714 107.18 125.781C107.461 125.844 107.685 125.909 107.852 125.977C108.023 126.044 108.143 126.078 108.211 126.078C108.336 126.078 108.422 126.055 108.469 126.008C108.521 125.961 108.583 125.914 108.656 125.867C108.714 125.831 108.784 125.812 108.867 125.812C108.971 125.812 109.068 125.844 109.156 125.906C109.25 125.964 109.297 126.031 109.297 126.109C109.297 126.427 109.312 126.734 109.344 127.031C109.38 127.323 109.414 127.596 109.445 127.852C109.482 128.107 109.5 128.333 109.5 128.531C109.5 128.693 109.458 128.807 109.375 128.875C109.292 128.938 109.198 128.969 109.094 128.969C109.016 128.969 108.94 128.951 108.867 128.914C108.799 128.878 108.76 128.836 108.75 128.789C108.693 128.451 108.607 128.148 108.492 127.883C108.378 127.617 108.24 127.385 108.078 127.188C107.922 126.99 107.747 126.826 107.555 126.695C107.362 126.56 107.156 126.461 106.938 126.398C106.724 126.331 106.503 126.297 106.273 126.297C105.914 126.297 105.594 126.357 105.312 126.477C105.031 126.596 104.81 126.794 104.648 127.07C104.492 127.341 104.414 127.711 104.414 128.18C104.414 128.513 104.534 128.823 104.773 129.109C105.018 129.391 105.328 129.656 105.703 129.906C106.083 130.156 106.474 130.398 106.875 130.633C107.214 130.831 107.562 131.042 107.922 131.266C108.286 131.484 108.625 131.732 108.938 132.008C109.25 132.279 109.503 132.586 109.695 132.93C109.893 133.273 109.992 133.664 109.992 134.102C109.992 134.779 109.839 135.352 109.531 135.82C109.224 136.284 108.81 136.635 108.289 136.875C107.773 137.115 107.198 137.234 106.562 137.234Z" fill="white"/>
</g>
<defs>
<clipPath id="clip0_1001_2">
<rect width="144" height="144" fill="white"/>
</clipPath>
</defs>
</svg>
