<?xml version="1.0" encoding="UTF-8"?>
<svg width="144px" height="144px" viewBox="0 0 144 144" version="1.1" xmlns="http://www.w3.org/2000/svg" xmlns:xlink="http://www.w3.org/1999/xlink">
    <!-- Generator: Sketch 52.6 (67491) - http://www.bohemiancoding.com/sketch -->
    <title>Group</title>
    <desc>Created with Sketch.</desc>
    <g id="Page-1" stroke="none" stroke-width="1" fill="none" fill-rule="evenodd">
        <g id="Group">
            <g id="fide-logo">
                <rect id="Rectangle-Copy-25" fill="#AC0600" x="0" y="0" width="144" height="120"></rect>
                <g id="Group-7" transform="translate(25.000000, 46.000000)" fill="#FFFFFF">
                    <polygon id="Fill-1" points="0 0 0 2.74174088 2.8549059 2.74174088 2.8549059 26.2577867 0 26.2577867 0 29 13.3363941 29 13.3363941 26.2577867 9.46188994 26.2577867 9.46188994 15.9956668 14.8452325 15.9956668 14.8452325 18.4884448 17.863373 18.4884448 17.863373 10.5113977 14.8452325 10.5113977 14.8452325 13.0041757 9.46188994 13.0041757 9.46188994 2.99117615 17.985799 2.99117615 17.985799 7.72776933 22.7166667 7.72776933 22.7166667 0"></polygon>
                    <polygon id="Fill-2" points="25.85 0 25.85 2.74174088 28.7550971 2.74174088 28.7550971 26.2577867 25.85 26.2577867 25.85 29 38.3833333 29 38.3833333 26.2577867 35.4782363 26.2577867 35.4782363 2.74174088 38.3833333 2.74174088 38.3833333 0"></polygon>
                    <path d="M41.5166667,26.2577867 L44.4157427,26.2577867 L44.4157427,2.74189835 L41.5166667,2.74189835 L41.5166667,2.84217094e-14 L55.0179568,2.84217094e-14 C62.9281381,2.84217094e-14 68.9333333,5.27656386 68.9333333,14.5 C68.9333333,23.7234361 62.9281381,29 55.0179568,29 L41.5166667,29 L41.5166667,26.2577867 Z M51.1249477,26.0086664 L53.8168235,26.0086664 C59.3664923,26.0086664 61.5614016,23.9725565 61.5614016,18.3223121 L61.5614016,10.6776879 C61.5614016,5.02712858 59.3664923,2.99133362 53.8168235,2.99133362 L51.1249477,2.99133362 L51.1249477,26.0086664 Z" id="Combined-Shape" fill-rule="nonzero"></path>
                    <polygon id="Fill-6" points="70.5 26.2577867 73.4115477 26.2577867 73.4115477 2.74189835 70.5 2.74189835 70.5 0 93.6673688 0 93.6673688 7.72776933 88.84264 7.72776933 88.84264 2.99133362 80.1496153 2.99133362 80.1496153 12.3809025 85.6399218 12.3809025 85.6399218 9.88812446 88.7177851 9.88812446 88.7177851 17.8653291 85.6399218 17.8653291 85.6399218 15.372551 80.1496153 15.372551 80.1496153 26.0086664 89.1752712 26.0086664 89.1752712 20.4410947 94 20.4410947 94 29 70.5 29"></polygon>
                </g>
            </g>
            <rect id="Rectangle-Copy-78" fill="#222222" fill-rule="nonzero" x="0" y="120" width="144" height="24"></rect>
            <path d="M29.7759988,129.118 L27.1299988,129.118 L27.1299988,137 L25.0019988,137 L25.0019988,129.118 L22.3559988,129.118 L22.3559988,127.228 L29.7759988,127.228 L29.7759988,129.118 Z M39.8267263,137 L37.6147263,137 L36.9147263,134.676 L33.6527263,134.676 L32.9527263,137 L30.7967263,137 L34.0167263,127.228 L36.6487263,127.228 L39.8267263,137 Z M36.3967263,132.87 L35.3047263,129.16 L35.2347263,129.16 L34.1567263,132.87 L36.3967263,132.87 Z M41.6734538,137 L44.8094538,131.946 L41.8274538,127.228 L44.3054538,127.228 L46.2094538,130.532 L46.2514538,130.532 L48.1834538,127.228 L50.4794538,127.228 L47.4694538,131.988 L50.6474538,137 L48.1834538,137 L46.0694538,133.402 L46.0274538,133.402 L43.9694538,137 L41.6734538,137 Z M64.2669088,137 L63.5389088,136.202 C62.9229088,136.706 62.0969088,137.168 60.7389088,137.168 C58.5829088,137.168 57.4209088,136.006 57.4209088,134.438 C57.4209088,133.108 58.2469088,132.38 59.3809088,131.722 C58.8349088,131.106 58.2889088,130.294 58.2889088,129.398 C58.2889088,128.11 59.4229088,127.06 61.2149088,127.06 C62.8109088,127.06 64.0289088,127.872 64.0289088,129.3 C64.0289088,130.532 63.1469088,131.288 62.0829088,131.918 L63.5949088,133.556 C63.8329088,132.954 63.9589088,132.268 64.0009088,131.61 L66.3389088,131.61 L66.3389088,133.332 L65.4569088,133.332 C65.3029088,133.906 65.0929088,134.438 64.8269088,134.886 L66.7729088,137 L64.2669088,137 Z M61.1589088,128.642 C60.6549088,128.642 60.2629088,128.936 60.2629088,129.44 L60.2629088,129.496 C60.2629088,129.86 60.4869088,130.168 61.0609088,130.812 C61.7189088,130.42 62.0549088,130.056 62.0549088,129.496 L62.0549088,129.44 C62.0549088,128.936 61.6629088,128.642 61.1589088,128.642 Z M61.0469088,135.446 C61.6069088,135.446 62.0829088,135.306 62.4609088,135.054 L60.4029088,132.828 C59.7729088,133.206 59.5349088,133.57 59.5349088,134.074 L59.5349088,134.214 C59.5349088,134.928 60.0389088,135.446 61.0469088,135.446 Z M79.5943637,137 L73.7423637,137 L73.7423637,127.228 L75.8703637,127.228 L75.8703637,135.11 L79.5943637,135.11 L79.5943637,137 Z M89.0850912,137 L82.4350912,137 L82.4350912,127.228 L89.0850912,127.228 L89.0850912,129.118 L84.5630912,129.118 L84.5630912,131.12 L88.4410912,131.12 L88.4410912,132.996 L84.5630912,132.996 L84.5630912,135.11 L89.0850912,135.11 L89.0850912,137 Z M98.4078187,137 L98.4078187,135.446 L98.3378187,135.446 C98.1978187,136.426 97.3018187,137.168 95.8318187,137.168 C93.5918187,137.168 91.8278187,135.432 91.8278187,132.156 C91.8278187,128.866 93.6058187,127.06 96.2518187,127.06 C97.9878187,127.06 99.2898187,127.83 100.017819,129.328 L98.2818187,130.322 C97.9878187,129.566 97.3858187,128.95 96.2518187,128.95 C94.9358187,128.95 94.0818187,129.706 94.0818187,131.33 L94.0818187,132.898 C94.0818187,134.522 94.9358187,135.278 96.2518187,135.278 C97.3158187,135.278 98.1698187,134.774 98.1698187,133.822 L98.1698187,133.332 L96.3498187,133.332 L96.3498187,131.554 L100.199819,131.554 L100.199819,137 L98.4078187,137 Z M111.776546,137 L109.564546,137 L108.864546,134.676 L105.602546,134.676 L104.902546,137 L102.746546,137 L105.966546,127.228 L108.598546,127.228 L111.776546,137 Z M108.346546,132.87 L107.254546,129.16 L107.184546,129.16 L106.106546,132.87 L108.346546,132.87 Z M120.259274,137 L114.407274,137 L114.407274,127.228 L116.535274,127.228 L116.535274,135.11 L120.259274,135.11 L120.259274,137 Z" id="TAX-&amp;-LEGAL" fill="#FFFFFF"></path>
        </g>
    </g>
</svg>