<svg width="144" height="144" viewBox="0 0 144 144" fill="none" xmlns="http://www.w3.org/2000/svg">
<g clip-path="url(#clip0_1001_2)">
<path d="M144 0H0V120H144V0Z" fill="#AC0600"/>
<path fill-rule="evenodd" clip-rule="evenodd" d="M25 46V48.7417H27.8549V72.2578H25V75H38.3364V72.2578H34.4619V61.9957H39.8452V64.4884H42.8634V56.5114H39.8452V59.0042H34.4619V48.9912H42.9858V53.7278H47.7167V46H25Z" fill="white"/>
<path fill-rule="evenodd" clip-rule="evenodd" d="M50.85 46V48.7417H53.7551V72.2578H50.85V75H63.3833V72.2578H60.4782V48.7417H63.3833V46H50.85Z" fill="white"/>
<path d="M66.5167 72.2578H69.4157V48.7419H66.5167V46H80.018C87.9281 46 93.9333 51.2766 93.9333 60.5C93.9333 69.7234 87.9281 75 80.018 75H66.5167V72.2578ZM76.1249 72.0087H78.8168C84.3665 72.0087 86.5614 69.9726 86.5614 64.3223V56.6777C86.5614 51.0271 84.3665 48.9913 78.8168 48.9913H76.1249V72.0087Z" fill="white"/>
<path fill-rule="evenodd" clip-rule="evenodd" d="M95.5 72.2578H98.4115V48.7419H95.5V46H118.667V53.7278H113.843V48.9913H105.15V58.3809H110.64V55.8881H113.718V63.8653H110.64V61.3726H105.15V72.0087H114.175V66.4411H119V75H95.5V72.2578Z" fill="white"/>
<path d="M144 120H0V144H144V120Z" fill="#1D1C1C"/>
<path fill-rule="evenodd" clip-rule="evenodd" d="M29.776 129.118H27.13V137H25.002V129.118H22.356V127.228H29.776V129.118ZM39.8267 137H37.6147L36.9147 134.676H33.6527L32.9527 137H30.7967L34.0167 127.228H36.6487L39.8267 137ZM36.3967 132.87L35.3047 129.16H35.2347L34.1567 132.87H36.3967ZM41.6735 137L44.8095 131.946L41.8275 127.228H44.3055L46.2095 130.532H46.2515L48.1835 127.228H50.4795L47.4695 131.988L50.6475 137H48.1835L46.0695 133.402H46.0275L43.9695 137H41.6735ZM64.2669 137L63.5389 136.202C62.9229 136.706 62.0969 137.168 60.7389 137.168C58.5829 137.168 57.4209 136.006 57.4209 134.438C57.4209 133.108 58.2469 132.38 59.3809 131.722C58.8349 131.106 58.2889 130.294 58.2889 129.398C58.2889 128.11 59.4229 127.06 61.2149 127.06C62.8109 127.06 64.0289 127.872 64.0289 129.3C64.0289 130.532 63.1469 131.288 62.0829 131.918L63.5949 133.556C63.8329 132.954 63.9589 132.268 64.0009 131.61H66.3389V133.332H65.4569C65.3029 133.906 65.0929 134.438 64.8269 134.886L66.7729 137H64.2669ZM61.1589 128.642C60.6549 128.642 60.2629 128.936 60.2629 129.44V129.496C60.2629 129.86 60.4869 130.168 61.0609 130.812C61.7189 130.42 62.0549 130.056 62.0549 129.496V129.44C62.0549 128.936 61.6629 128.642 61.1589 128.642ZM61.0469 135.446C61.6069 135.446 62.0829 135.306 62.4609 135.054L60.4029 132.828C59.7729 133.206 59.5349 133.57 59.5349 134.074V134.214C59.5349 134.928 60.0389 135.446 61.0469 135.446ZM79.5944 137H73.7424V127.228H75.8704V135.11H79.5944V137ZM89.0851 137H82.4351V127.228H89.0851V129.118H84.5631V131.12H88.4411V132.996H84.5631V135.11H89.0851V137ZM98.4078 137V135.446H98.3378C98.1978 136.426 97.3018 137.168 95.8318 137.168C93.5918 137.168 91.8278 135.432 91.8278 132.156C91.8278 128.866 93.6058 127.06 96.2518 127.06C97.9878 127.06 99.2898 127.83 100.018 129.328L98.2818 130.322C97.9878 129.566 97.3858 128.95 96.2518 128.95C94.9358 128.95 94.0818 129.706 94.0818 131.33V132.898C94.0818 134.522 94.9358 135.278 96.2518 135.278C97.3158 135.278 98.1698 134.774 98.1698 133.822V133.332H96.3498V131.554H100.2V137H98.4078ZM111.777 137H109.565L108.865 134.676H105.603L104.903 137H102.747L105.967 127.228H108.599L111.777 137ZM108.347 132.87L107.255 129.16H107.185L106.107 132.87H108.347ZM120.259 137H114.407V127.228H116.535V135.11H120.259V137Z" fill="white"/>
<rect y="120" width="144" height="24" fill="#0E0D0D"/>
<path d="M35.019 132.139C34.7763 131.402 34.525 130.67 34.265 129.942C34.0137 129.214 33.771 128.482 33.537 127.745C33.2857 128.482 33.0343 129.214 32.783 129.942C32.5403 130.67 32.2933 131.402 32.042 132.139H35.019ZM38.919 135.87C38.919 136 38.8367 136.065 38.672 136.065C38.62 136.065 38.568 136.065 38.516 136.065C38.464 136.065 38.4077 136.061 38.347 136.052C38.1303 136.035 37.905 136.026 37.671 136.026C37.4457 136.026 37.2203 136.026 36.995 136.026C36.709 136.026 36.423 136.026 36.137 136.026C35.851 136.026 35.5607 136.035 35.266 136.052C35.2313 136.061 35.1967 136.065 35.162 136.065C35.1273 136.065 35.0927 136.065 35.058 136.065C34.9367 136.065 34.876 136.004 34.876 135.883C34.876 135.779 34.9107 135.718 34.98 135.701C35.058 135.675 35.1447 135.666 35.24 135.675C35.3353 135.684 35.4133 135.688 35.474 135.688C35.63 135.688 35.7427 135.658 35.812 135.597C35.89 135.528 35.929 135.411 35.929 135.246C35.929 135.151 35.8987 134.986 35.838 134.752C35.7773 134.509 35.7037 134.245 35.617 133.959C35.5303 133.673 35.4437 133.409 35.357 133.166C35.279 132.915 35.2227 132.737 35.188 132.633H31.873C31.8557 132.685 31.8167 132.802 31.756 132.984C31.6953 133.166 31.6217 133.378 31.535 133.621C31.457 133.864 31.379 134.102 31.301 134.336C31.223 134.57 31.158 134.774 31.106 134.947C31.054 135.112 31.028 135.211 31.028 135.246C31.028 135.411 31.0713 135.523 31.158 135.584C31.2447 135.645 31.353 135.679 31.483 135.688C31.613 135.688 31.7387 135.688 31.86 135.688C31.9033 135.688 31.938 135.718 31.964 135.779C31.99 135.831 32.003 135.879 32.003 135.922C32.003 135.974 31.9813 136.013 31.938 136.039C31.9033 136.065 31.8643 136.078 31.821 136.078C31.535 136.078 31.249 136.069 30.963 136.052C30.6857 136.043 30.4083 136.039 30.131 136.039C29.9923 136.039 29.8537 136.043 29.715 136.052C29.5763 136.061 29.4333 136.065 29.286 136.065C29.2427 136.065 29.1993 136.048 29.156 136.013C29.1127 135.978 29.091 135.939 29.091 135.896C29.091 135.801 29.1257 135.74 29.195 135.714C29.2643 135.688 29.3423 135.679 29.429 135.688C29.5243 135.688 29.6023 135.688 29.663 135.688C29.7757 135.688 29.8667 135.645 29.936 135.558C30.014 135.463 30.0703 135.372 30.105 135.285C30.6163 134.002 31.1017 132.715 31.561 131.424C32.0203 130.124 32.4667 128.82 32.9 127.511C32.9347 127.416 32.978 127.281 33.03 127.108C33.082 126.935 33.108 126.805 33.108 126.718C33.108 126.666 33.095 126.623 33.069 126.588C33.0517 126.545 33.043 126.506 33.043 126.471C33.043 126.436 33.0863 126.41 33.173 126.393C33.2597 126.376 33.3507 126.363 33.446 126.354C33.5413 126.345 33.602 126.341 33.628 126.341C33.81 126.315 33.9877 126.289 34.161 126.263C34.343 126.237 34.525 126.215 34.707 126.198L37.892 135.181C37.9613 135.389 38.0523 135.523 38.165 135.584C38.2863 135.636 38.4467 135.662 38.646 135.662C38.724 135.662 38.789 135.675 38.841 135.701C38.893 135.718 38.919 135.775 38.919 135.87ZM49.0254 126.666C49.0254 126.831 48.943 126.913 48.7784 126.913C48.709 126.913 48.6397 126.909 48.5704 126.9C48.501 126.891 48.4317 126.887 48.3624 126.887C48.3277 126.887 48.2887 126.891 48.2454 126.9C48.202 126.9 48.1587 126.9 48.1154 126.9C48.0287 126.9 47.9724 126.956 47.9464 127.069C47.9204 127.173 47.9074 127.29 47.9074 127.42C47.9074 127.541 47.9074 127.628 47.9074 127.68V135.779C47.9074 135.84 47.8987 135.892 47.8814 135.935C47.8727 135.978 47.8294 136.004 47.7514 136.013C47.6301 136.03 47.5 136.035 47.3614 136.026C47.2227 136.026 47.0927 136.03 46.9714 136.039C46.902 135.814 46.8024 135.597 46.6724 135.389C46.551 135.181 46.421 134.982 46.2824 134.791C45.485 133.63 44.64 132.507 43.7474 131.424C42.8634 130.341 42.014 129.227 41.1994 128.083C41.1994 129.253 41.195 130.423 41.1864 131.593C41.1864 132.754 41.1864 133.92 41.1864 135.09C41.1864 135.168 41.195 135.268 41.2124 135.389C41.2384 135.502 41.3034 135.558 41.4074 135.558C41.5287 135.558 41.65 135.554 41.7714 135.545C41.9014 135.536 42.0227 135.532 42.1354 135.532C42.2047 135.532 42.248 135.567 42.2654 135.636C42.2914 135.697 42.3044 135.749 42.3044 135.792C42.3044 135.853 42.287 135.909 42.2524 135.961C42.2264 136.013 42.1787 136.039 42.1094 136.039C41.962 136.039 41.8147 136.03 41.6674 136.013C41.52 135.996 41.3727 135.987 41.2254 135.987C41.026 135.987 40.8224 135.991 40.6144 136C40.4064 136 40.2027 136.009 40.0034 136.026C39.9254 136.035 39.8474 136.039 39.7694 136.039C39.7 136.048 39.6307 136.052 39.5614 136.052C39.388 136.052 39.3014 135.961 39.3014 135.779C39.3014 135.71 39.3274 135.653 39.3794 135.61C39.4314 135.558 39.4877 135.532 39.5484 135.532C39.635 135.532 39.7174 135.541 39.7954 135.558C39.8734 135.567 39.9557 135.571 40.0424 135.571C40.1724 135.571 40.2677 135.554 40.3284 135.519C40.3977 135.476 40.4324 135.376 40.4324 135.22C40.4324 134.024 40.441 132.828 40.4584 131.632C40.4844 130.436 40.4974 129.24 40.4974 128.044C40.4974 127.931 40.4974 127.823 40.4974 127.719C40.4974 127.615 40.4974 127.507 40.4974 127.394C40.4974 127.281 40.4757 127.169 40.4324 127.056C40.3977 126.943 40.311 126.887 40.1724 126.887C40.0684 126.887 39.96 126.891 39.8474 126.9C39.7434 126.909 39.635 126.913 39.5224 126.913C39.375 126.913 39.3014 126.831 39.3014 126.666C39.3014 126.51 39.3794 126.432 39.5354 126.432C39.7607 126.432 39.986 126.436 40.2114 126.445C40.4367 126.454 40.6577 126.458 40.8744 126.458C41.0737 126.458 41.273 126.458 41.4724 126.458C41.6804 126.449 41.884 126.445 42.0834 126.445C42.5947 127.138 43.132 127.81 43.6954 128.46C44.2674 129.101 44.8134 129.764 45.3334 130.449C45.6367 130.856 45.9444 131.264 46.2564 131.671C46.5684 132.078 46.8847 132.481 47.2054 132.88C47.2054 131.961 47.2054 131.043 47.2054 130.124C47.214 129.205 47.2184 128.287 47.2184 127.368C47.2184 127.29 47.2054 127.195 47.1794 127.082C47.162 126.961 47.097 126.9 46.9844 126.9H46.6334C46.5814 126.9 46.5294 126.909 46.4774 126.926C46.4254 126.935 46.3734 126.939 46.3214 126.939C46.1567 126.939 46.0744 126.848 46.0744 126.666C46.0744 126.562 46.1047 126.501 46.1654 126.484C46.226 126.458 46.2997 126.445 46.3864 126.445C46.5597 126.445 46.7287 126.449 46.8934 126.458C47.0667 126.467 47.2357 126.471 47.4004 126.471C47.6257 126.471 47.8511 126.462 48.0764 126.445C48.3104 126.428 48.54 126.419 48.7654 126.419C48.8347 126.419 48.8954 126.445 48.9474 126.497C48.9994 126.54 49.0254 126.597 49.0254 126.666ZM55.2299 132.139C54.9873 131.402 54.7359 130.67 54.4759 129.942C54.2246 129.214 53.9819 128.482 53.7479 127.745C53.4966 128.482 53.2453 129.214 52.9939 129.942C52.7513 130.67 52.5043 131.402 52.2529 132.139H55.2299ZM59.1299 135.87C59.1299 136 59.0476 136.065 58.8829 136.065C58.8309 136.065 58.7789 136.065 58.7269 136.065C58.6749 136.065 58.6186 136.061 58.5579 136.052C58.3413 136.035 58.1159 136.026 57.8819 136.026C57.6566 136.026 57.4313 136.026 57.2059 136.026C56.9199 136.026 56.6339 136.026 56.3479 136.026C56.0619 136.026 55.7716 136.035 55.4769 136.052C55.4423 136.061 55.4076 136.065 55.3729 136.065C55.3383 136.065 55.3036 136.065 55.2689 136.065C55.1476 136.065 55.0869 136.004 55.0869 135.883C55.0869 135.779 55.1216 135.718 55.1909 135.701C55.2689 135.675 55.3556 135.666 55.4509 135.675C55.5463 135.684 55.6243 135.688 55.6849 135.688C55.8409 135.688 55.9536 135.658 56.0229 135.597C56.1009 135.528 56.1399 135.411 56.1399 135.246C56.1399 135.151 56.1096 134.986 56.0489 134.752C55.9883 134.509 55.9146 134.245 55.8279 133.959C55.7413 133.673 55.6546 133.409 55.5679 133.166C55.4899 132.915 55.4336 132.737 55.3989 132.633H52.0839C52.0666 132.685 52.0276 132.802 51.9669 132.984C51.9063 133.166 51.8326 133.378 51.7459 133.621C51.6679 133.864 51.5899 134.102 51.5119 134.336C51.4339 134.57 51.3689 134.774 51.3169 134.947C51.2649 135.112 51.2389 135.211 51.2389 135.246C51.2389 135.411 51.2823 135.523 51.3689 135.584C51.4556 135.645 51.5639 135.679 51.6939 135.688C51.8239 135.688 51.9496 135.688 52.0709 135.688C52.1143 135.688 52.1489 135.718 52.1749 135.779C52.2009 135.831 52.2139 135.879 52.2139 135.922C52.2139 135.974 52.1923 136.013 52.1489 136.039C52.1143 136.065 52.0753 136.078 52.0319 136.078C51.7459 136.078 51.4599 136.069 51.1739 136.052C50.8966 136.043 50.6193 136.039 50.3419 136.039C50.2033 136.039 50.0646 136.043 49.9259 136.052C49.7873 136.061 49.6443 136.065 49.4969 136.065C49.4536 136.065 49.4103 136.048 49.3669 136.013C49.3236 135.978 49.3019 135.939 49.3019 135.896C49.3019 135.801 49.3366 135.74 49.4059 135.714C49.4753 135.688 49.5533 135.679 49.6399 135.688C49.7353 135.688 49.8133 135.688 49.8739 135.688C49.9866 135.688 50.0776 135.645 50.1469 135.558C50.2249 135.463 50.2813 135.372 50.3159 135.285C50.8273 134.002 51.3126 132.715 51.7719 131.424C52.2313 130.124 52.6776 128.82 53.1109 127.511C53.1456 127.416 53.1889 127.281 53.2409 127.108C53.2929 126.935 53.3189 126.805 53.3189 126.718C53.3189 126.666 53.3059 126.623 53.2799 126.588C53.2626 126.545 53.2539 126.506 53.2539 126.471C53.2539 126.436 53.2973 126.41 53.3839 126.393C53.4706 126.376 53.5616 126.363 53.6569 126.354C53.7523 126.345 53.8129 126.341 53.8389 126.341C54.0209 126.315 54.1986 126.289 54.3719 126.263C54.5539 126.237 54.7359 126.215 54.9179 126.198L58.1029 135.181C58.1723 135.389 58.2633 135.523 58.3759 135.584C58.4973 135.636 58.6576 135.662 58.8569 135.662C58.9349 135.662 58.9999 135.675 59.0519 135.701C59.1039 135.718 59.1299 135.775 59.1299 135.87ZM67.7673 133.01C67.7673 133.149 67.7587 133.287 67.7413 133.426C67.724 133.565 67.7067 133.708 67.6893 133.855C67.6547 134.158 67.6157 134.462 67.5723 134.765C67.529 135.068 67.4943 135.372 67.4683 135.675C67.4683 135.762 67.451 135.835 67.4163 135.896C67.373 135.957 67.308 135.991 67.2213 136C67.1347 136.017 67.0567 136.026 66.9873 136.026C66.8833 136.026 66.7793 136.022 66.6753 136.013C66.5713 136.013 66.463 136.013 66.3503 136.013C65.8043 136.004 65.2583 136 64.7123 136C64.1663 136 63.6203 136 63.0743 136H61.5923C61.4017 136 61.211 136 61.0203 136C60.8383 136 60.652 136.004 60.4613 136.013C60.366 136.022 60.2707 136.026 60.1753 136.026C60.08 136.035 59.9847 136.039 59.8893 136.039C59.8113 136.039 59.742 136.017 59.6813 135.974C59.6293 135.931 59.6033 135.87 59.6033 135.792C59.6033 135.705 59.6293 135.64 59.6813 135.597C59.742 135.554 59.807 135.532 59.8763 135.532C59.9457 135.532 60.015 135.536 60.0843 135.545C60.1623 135.554 60.236 135.558 60.3053 135.558C60.444 135.558 60.5523 135.541 60.6303 135.506C60.7083 135.463 60.7473 135.363 60.7473 135.207C60.7473 133.864 60.7473 132.52 60.7473 131.177C60.7473 129.825 60.743 128.482 60.7343 127.147C60.7343 127.043 60.7127 126.978 60.6693 126.952C60.6347 126.917 60.5697 126.9 60.4743 126.9C60.379 126.9 60.2793 126.904 60.1753 126.913C60.08 126.922 59.9803 126.926 59.8763 126.926C59.8157 126.926 59.7593 126.904 59.7073 126.861C59.6553 126.818 59.6293 126.761 59.6293 126.692C59.6293 126.527 59.716 126.445 59.8893 126.445C59.9847 126.445 60.0843 126.449 60.1883 126.458C60.2923 126.467 60.3963 126.475 60.5003 126.484C60.7083 126.493 60.912 126.501 61.1113 126.51C61.3193 126.51 61.5273 126.51 61.7353 126.51C61.9087 126.51 62.0777 126.51 62.2423 126.51C62.4157 126.51 62.5847 126.506 62.7493 126.497C62.8707 126.488 62.9877 126.48 63.1003 126.471C63.213 126.454 63.3257 126.445 63.4383 126.445C63.577 126.445 63.6463 126.519 63.6463 126.666C63.6463 126.727 63.629 126.787 63.5943 126.848C63.5597 126.9 63.5077 126.926 63.4383 126.926C63.3257 126.926 63.213 126.922 63.1003 126.913C62.9963 126.904 62.8837 126.9 62.7623 126.9C62.667 126.9 62.6063 126.926 62.5803 126.978C62.563 127.021 62.5543 127.086 62.5543 127.173C62.5543 127.494 62.55 127.81 62.5413 128.122C62.5413 128.434 62.5413 128.75 62.5413 129.071C62.5413 130.076 62.5413 131.086 62.5413 132.1C62.55 133.114 62.5543 134.124 62.5543 135.129C62.5543 135.216 62.576 135.298 62.6193 135.376C62.6627 135.454 62.7277 135.506 62.8143 135.532C62.927 135.558 63.044 135.571 63.1653 135.571C63.2867 135.571 63.4037 135.571 63.5163 135.571C64.1663 135.571 64.7297 135.506 65.2063 135.376C65.683 135.246 66.086 135.008 66.4153 134.661C66.7533 134.306 67.0307 133.794 67.2473 133.127C67.2733 133.049 67.308 132.98 67.3513 132.919C67.3947 132.85 67.4597 132.815 67.5463 132.815C67.5983 132.815 67.646 132.832 67.6893 132.867C67.7413 132.902 67.7673 132.949 67.7673 133.01ZM77.1523 126.666C77.1523 126.805 77.1003 126.878 76.9963 126.887C76.901 126.887 76.8056 126.887 76.7103 126.887C76.6496 126.887 76.5803 126.891 76.5023 126.9C76.4243 126.9 76.3593 126.913 76.3073 126.939C76.2553 126.956 76.1946 127.004 76.1253 127.082C76.0646 127.16 76.0213 127.225 75.9953 127.277C75.5446 128.022 75.0983 128.772 74.6563 129.526C74.2143 130.271 73.7723 131.017 73.3303 131.762C73.339 132.317 73.339 132.876 73.3303 133.439C73.3303 133.994 73.3303 134.548 73.3303 135.103C73.3303 135.216 73.3476 135.337 73.3823 135.467C73.417 135.588 73.5036 135.649 73.6423 135.649C73.7636 135.649 73.8806 135.645 73.9933 135.636C74.1146 135.627 74.2316 135.623 74.3443 135.623C74.4136 135.623 74.4656 135.649 74.5003 135.701C74.5436 135.744 74.5653 135.796 74.5653 135.857C74.5653 135.918 74.5393 135.965 74.4873 136C74.444 136.043 74.3963 136.065 74.3443 136.065C74.0756 136.065 73.807 136.056 73.5383 136.039C73.2696 136.022 73.001 136.013 72.7323 136.013C72.4723 136.013 72.2123 136.013 71.9523 136.013C71.701 136.013 71.4496 136.022 71.1983 136.039C71.0943 136.048 70.9903 136.052 70.8863 136.052C70.7823 136.061 70.6783 136.065 70.5743 136.065C70.4096 136.065 70.3273 135.991 70.3273 135.844C70.3273 135.688 70.4053 135.61 70.5613 135.61C70.6566 135.61 70.7476 135.614 70.8343 135.623C70.921 135.632 71.0076 135.636 71.0943 135.636C71.2763 135.636 71.3933 135.606 71.4453 135.545C71.506 135.476 71.532 135.385 71.5233 135.272C71.5233 135.159 71.5233 135.038 71.5233 134.908L71.5363 132.529C71.5363 132.26 71.4973 132.022 71.4193 131.814C71.35 131.597 71.2633 131.372 71.1593 131.138C71.0033 130.774 70.8343 130.414 70.6523 130.059C70.479 129.704 70.3013 129.348 70.1193 128.993C69.972 128.698 69.816 128.399 69.6513 128.096C69.4953 127.793 69.3263 127.507 69.1443 127.238C69.101 127.169 69.0316 127.108 68.9363 127.056C68.8496 126.995 68.763 126.965 68.6763 126.965C68.6156 126.965 68.5506 126.974 68.4813 126.991C68.412 127 68.3426 127.004 68.2733 127.004C68.204 127.004 68.139 126.982 68.0783 126.939C68.0263 126.896 68.0003 126.839 68.0003 126.77C68.0003 126.631 68.074 126.553 68.2213 126.536C68.3773 126.519 68.5333 126.506 68.6893 126.497C68.8453 126.488 69.0013 126.48 69.1573 126.471C69.3826 126.445 69.608 126.419 69.8333 126.393C70.0673 126.367 70.297 126.354 70.5223 126.354C70.6263 126.354 70.7 126.376 70.7433 126.419C70.7953 126.454 70.843 126.519 70.8863 126.614C71.2156 127.394 71.5493 128.17 71.8873 128.941C72.234 129.712 72.5806 130.484 72.9273 131.255C73.0053 131.134 73.1266 130.93 73.2913 130.644C73.456 130.358 73.6336 130.037 73.8243 129.682C74.0236 129.318 74.21 128.958 74.3833 128.603C74.5653 128.239 74.7126 127.918 74.8253 127.641C74.938 127.355 74.9943 127.151 74.9943 127.03C74.9943 126.952 74.9683 126.904 74.9163 126.887C74.873 126.861 74.8166 126.848 74.7473 126.848C74.6606 126.848 74.574 126.857 74.4873 126.874C74.4093 126.883 74.327 126.887 74.2403 126.887C74.0496 126.887 73.9543 126.805 73.9543 126.64C73.9543 126.501 74.0323 126.432 74.1883 126.432C74.4396 126.432 74.691 126.441 74.9423 126.458C75.1936 126.467 75.445 126.471 75.6963 126.471C75.9043 126.471 76.1123 126.467 76.3203 126.458C76.5283 126.441 76.7363 126.432 76.9443 126.432C77.083 126.432 77.1523 126.51 77.1523 126.666ZM85.893 128.837C85.893 128.924 85.8713 129.006 85.828 129.084C85.7846 129.153 85.7153 129.188 85.62 129.188C85.4813 129.188 85.386 129.158 85.334 129.097C85.2906 129.036 85.2516 128.95 85.217 128.837C85.191 128.716 85.1476 128.568 85.087 128.395C85.035 128.213 84.9743 128.035 84.905 127.862C84.8443 127.68 84.7793 127.541 84.71 127.446C84.6753 127.394 84.6363 127.346 84.593 127.303C84.5496 127.251 84.5063 127.203 84.463 127.16C84.4023 127.082 84.294 127.03 84.138 127.004C83.982 126.969 83.8216 126.952 83.657 126.952C83.4923 126.943 83.3623 126.939 83.267 126.939C83.1543 126.939 83.033 126.939 82.903 126.939C82.773 126.939 82.6603 126.969 82.565 127.03C82.4696 127.082 82.4176 127.186 82.409 127.342C82.4003 127.637 82.396 127.94 82.396 128.252C82.396 128.555 82.396 128.859 82.396 129.162C82.396 130.15 82.396 131.138 82.396 132.126C82.4046 133.114 82.409 134.102 82.409 135.09C82.409 135.194 82.422 135.315 82.448 135.454C82.4826 135.593 82.5693 135.662 82.708 135.662C82.838 135.662 82.9636 135.658 83.085 135.649C83.215 135.64 83.345 135.636 83.475 135.636C83.5443 135.636 83.5963 135.666 83.631 135.727C83.6656 135.779 83.683 135.831 83.683 135.883C83.683 136.039 83.6093 136.117 83.462 136.117C83.3666 136.117 83.267 136.113 83.163 136.104C83.0676 136.095 82.9723 136.087 82.877 136.078C82.7123 136.061 82.5476 136.052 82.383 136.052C82.2183 136.052 82.0493 136.052 81.876 136.052C81.59 136.052 81.304 136.052 81.018 136.052C80.732 136.052 80.446 136.061 80.16 136.078C80.056 136.087 79.9476 136.095 79.835 136.104C79.731 136.113 79.627 136.117 79.523 136.117C79.445 136.117 79.3843 136.091 79.341 136.039C79.2976 135.987 79.276 135.926 79.276 135.857C79.276 135.762 79.315 135.705 79.393 135.688C79.471 135.662 79.5446 135.649 79.614 135.649C79.7093 135.649 79.796 135.653 79.874 135.662C79.9606 135.662 80.0473 135.662 80.134 135.662C80.3593 135.662 80.485 135.61 80.511 135.506C80.5456 135.402 80.563 135.255 80.563 135.064V127.81C80.563 127.472 80.5456 127.247 80.511 127.134C80.4763 127.013 80.3853 126.952 80.238 126.952C80.0906 126.943 79.848 126.939 79.51 126.939C79.3973 126.939 79.2413 126.943 79.042 126.952C78.8513 126.961 78.7083 126.991 78.613 127.043C78.5003 127.104 78.4093 127.186 78.34 127.29C78.2706 127.385 78.2143 127.494 78.171 127.615C78.1016 127.814 78.0323 128.018 77.963 128.226C77.9023 128.434 77.8373 128.638 77.768 128.837C77.7333 128.958 77.69 129.049 77.638 129.11C77.586 129.162 77.4906 129.188 77.352 129.188C77.1873 129.188 77.105 129.101 77.105 128.928C77.105 128.703 77.1266 128.447 77.17 128.161C77.222 127.866 77.2523 127.593 77.261 127.342C77.2696 127.203 77.2696 127.065 77.261 126.926C77.261 126.779 77.274 126.64 77.3 126.51C77.3086 126.449 77.339 126.419 77.391 126.419C77.4863 126.419 77.5816 126.432 77.677 126.458C77.781 126.484 77.8806 126.506 77.976 126.523C78.08 126.532 78.184 126.54 78.288 126.549C78.4006 126.549 78.5133 126.553 78.626 126.562C79.0853 126.571 79.562 126.579 80.056 126.588C80.5586 126.588 81.0353 126.588 81.486 126.588C81.9973 126.588 82.5346 126.584 83.098 126.575C83.6613 126.566 84.1986 126.562 84.71 126.562C84.762 126.562 84.814 126.562 84.866 126.562C84.9266 126.562 84.983 126.558 85.035 126.549C85.1303 126.532 85.2213 126.506 85.308 126.471C85.4033 126.436 85.4986 126.419 85.594 126.419C85.6373 126.419 85.6676 126.441 85.685 126.484C85.711 126.605 85.7283 126.748 85.737 126.913C85.7456 127.069 85.7543 127.208 85.763 127.329C85.789 127.572 85.815 127.823 85.841 128.083C85.8756 128.334 85.893 128.586 85.893 128.837ZM90.4616 126.731C90.4616 126.878 90.3922 126.952 90.2536 126.952C90.1496 126.952 90.0412 126.952 89.9286 126.952C89.8246 126.943 89.7206 126.939 89.6166 126.939C89.5299 126.939 89.4692 126.978 89.4346 127.056C89.3999 127.125 89.3826 127.199 89.3826 127.277C89.3826 127.58 89.3782 127.888 89.3696 128.2C89.3696 128.503 89.3696 128.807 89.3696 129.11C89.3696 130.063 89.3696 131.021 89.3696 131.983C89.3782 132.936 89.3826 133.89 89.3826 134.843C89.3826 134.904 89.3782 134.999 89.3696 135.129C89.3609 135.259 89.3696 135.38 89.3956 135.493C89.4302 135.597 89.4952 135.649 89.5906 135.649C89.7032 135.649 89.8159 135.645 89.9286 135.636C90.0412 135.627 90.1539 135.623 90.2666 135.623C90.3272 135.623 90.3706 135.649 90.3966 135.701C90.4226 135.744 90.4356 135.796 90.4356 135.857C90.4356 135.918 90.4139 135.97 90.3706 136.013C90.3359 136.065 90.2839 136.091 90.2146 136.091C89.9199 136.091 89.6252 136.087 89.3306 136.078C89.0446 136.069 88.7542 136.065 88.4596 136.065C88.1649 136.065 87.8702 136.069 87.5756 136.078C87.2809 136.087 86.9862 136.091 86.6916 136.091C86.6049 136.091 86.5486 136.074 86.5226 136.039C86.4966 136.004 86.4836 135.948 86.4836 135.87C86.4836 135.801 86.4966 135.744 86.5226 135.701C86.5572 135.649 86.6092 135.623 86.6786 135.623C86.7739 135.623 86.8692 135.627 86.9646 135.636C87.0599 135.645 87.1509 135.649 87.2376 135.649C87.3589 135.649 87.4412 135.61 87.4846 135.532C87.5279 135.454 87.5539 135.363 87.5626 135.259C87.5712 135.146 87.5756 135.051 87.5756 134.973L87.5886 127.511C87.5886 127.433 87.5799 127.32 87.5626 127.173C87.5452 127.017 87.4846 126.935 87.3806 126.926C87.3546 126.926 87.3286 126.926 87.3026 126.926C87.2852 126.926 87.2636 126.926 87.2376 126.926C87.1509 126.926 87.0642 126.93 86.9776 126.939C86.8996 126.948 86.8172 126.952 86.7306 126.952C86.5659 126.952 86.4836 126.87 86.4836 126.705C86.4836 126.644 86.5009 126.592 86.5356 126.549C86.5789 126.506 86.6309 126.484 86.6916 126.484C87.0642 126.484 87.4326 126.493 87.7966 126.51C88.1692 126.527 88.5419 126.536 88.9146 126.536C89.1399 126.536 89.3652 126.527 89.5906 126.51C89.8246 126.493 90.0542 126.484 90.2796 126.484C90.3489 126.484 90.3966 126.51 90.4226 126.562C90.4486 126.614 90.4616 126.67 90.4616 126.731ZM100.551 133.816C100.551 133.859 100.529 133.92 100.486 133.998C100.442 134.076 100.412 134.137 100.395 134.18C100.282 134.379 100.109 134.587 99.8747 134.804C99.6407 135.021 99.424 135.198 99.2247 135.337C98.8173 135.623 98.3883 135.809 97.9377 135.896C97.487 135.983 97.019 136.026 96.5337 136.026C95.589 136.026 94.783 135.831 94.1157 135.441C93.4483 135.042 92.937 134.492 92.5817 133.79C92.235 133.079 92.0617 132.26 92.0617 131.333C92.0617 130.414 92.2307 129.587 92.5687 128.85C92.9067 128.113 93.405 127.528 94.0637 127.095C94.731 126.653 95.5457 126.432 96.5077 126.432C96.941 126.432 97.3093 126.484 97.6127 126.588C97.916 126.692 98.2583 126.813 98.6397 126.952C98.8217 127.013 99.0037 127.06 99.1857 127.095C99.3677 127.121 99.554 127.143 99.7447 127.16C99.7533 127.351 99.7663 127.546 99.7837 127.745C99.801 127.936 99.8227 128.131 99.8487 128.33C99.866 128.495 99.8963 128.664 99.9397 128.837C99.983 129.01 100.005 129.184 100.005 129.357C100.005 129.522 99.944 129.643 99.8227 129.721C99.71 129.799 99.58 129.838 99.4327 129.838C99.19 129.838 99.021 129.738 98.9257 129.539C98.8997 129.47 98.8823 129.396 98.8737 129.318C98.865 129.231 98.852 129.158 98.8347 129.097C98.774 128.82 98.6657 128.521 98.5097 128.2C98.3623 127.871 98.1847 127.611 97.9767 127.42C97.812 127.273 97.5867 127.143 97.3007 127.03C97.0147 126.909 96.759 126.848 96.5337 126.848C96.317 126.848 96.1133 126.896 95.9227 126.991C95.7407 127.086 95.563 127.203 95.3897 127.342C95.017 127.654 94.7223 128.027 94.5057 128.46C94.289 128.893 94.1373 129.357 94.0507 129.851C93.964 130.336 93.9207 130.813 93.9207 131.281C93.9207 131.593 93.938 131.905 93.9727 132.217C94.016 132.52 94.081 132.824 94.1677 133.127C94.289 133.534 94.4623 133.92 94.6877 134.284C94.9217 134.639 95.2077 134.93 95.5457 135.155C95.8923 135.372 96.291 135.48 96.7417 135.48C97.383 135.48 97.9637 135.32 98.4837 134.999C99.0123 134.678 99.45 134.258 99.7967 133.738C99.8487 133.651 99.9007 133.578 99.9527 133.517C100.013 133.448 100.1 133.413 100.213 133.413C100.325 133.413 100.408 133.456 100.46 133.543C100.52 133.63 100.551 133.721 100.551 133.816ZM108.073 133.608C108.073 134.111 107.96 134.531 107.735 134.869C107.509 135.198 107.21 135.458 106.838 135.649C106.474 135.84 106.075 135.974 105.642 136.052C105.208 136.13 104.784 136.169 104.368 136.169C104.047 136.169 103.739 136.121 103.445 136.026C103.15 135.939 102.851 135.84 102.548 135.727C102.4 135.675 102.253 135.645 102.106 135.636C101.967 135.619 101.82 135.61 101.664 135.61C101.638 135.402 101.612 135.198 101.586 134.999C101.56 134.791 101.529 134.583 101.495 134.375C101.477 134.228 101.456 134.085 101.43 133.946C101.404 133.807 101.391 133.669 101.391 133.53C101.391 133.409 101.412 133.309 101.456 133.231C101.508 133.153 101.599 133.114 101.729 133.114C101.85 133.114 101.941 133.14 102.002 133.192C102.071 133.235 102.123 133.313 102.158 133.426C102.218 133.582 102.266 133.742 102.301 133.907C102.344 134.072 102.396 134.236 102.457 134.401C102.604 134.808 102.842 135.133 103.172 135.376C103.51 135.619 103.904 135.74 104.355 135.74C104.961 135.74 105.425 135.567 105.746 135.22C106.075 134.865 106.24 134.388 106.24 133.79C106.24 133.443 106.166 133.157 106.019 132.932C105.871 132.698 105.681 132.499 105.447 132.334C105.213 132.169 104.961 132.013 104.693 131.866C104.441 131.727 104.186 131.597 103.926 131.476C103.666 131.355 103.41 131.229 103.159 131.099C102.881 130.952 102.608 130.77 102.34 130.553C102.08 130.328 101.863 130.072 101.69 129.786C101.525 129.491 101.443 129.175 101.443 128.837C101.443 128.265 101.59 127.793 101.885 127.42C102.188 127.047 102.574 126.77 103.042 126.588C103.518 126.406 104.012 126.315 104.524 126.315C104.853 126.315 105.169 126.363 105.473 126.458C105.785 126.545 106.088 126.649 106.383 126.77C106.478 126.805 106.565 126.831 106.643 126.848C106.729 126.865 106.82 126.874 106.916 126.874C106.985 126.874 107.05 126.874 107.111 126.874C107.171 126.865 107.232 126.857 107.293 126.848C107.319 127.125 107.349 127.403 107.384 127.68C107.418 127.957 107.453 128.235 107.488 128.512C107.496 128.555 107.501 128.603 107.501 128.655C107.509 128.698 107.514 128.742 107.514 128.785C107.514 128.906 107.488 129.019 107.436 129.123C107.384 129.218 107.284 129.266 107.137 129.266C107.024 129.266 106.942 129.24 106.89 129.188C106.838 129.136 106.79 129.062 106.747 128.967C106.643 128.698 106.543 128.434 106.448 128.174C106.352 127.914 106.214 127.671 106.032 127.446C105.841 127.203 105.603 127.026 105.317 126.913C105.031 126.792 104.736 126.731 104.433 126.731C104.138 126.731 103.891 126.813 103.692 126.978C103.492 127.134 103.345 127.338 103.25 127.589C103.154 127.84 103.107 128.1 103.107 128.369C103.107 128.785 103.215 129.11 103.432 129.344C103.657 129.569 103.934 129.777 104.264 129.968C104.446 130.063 104.628 130.159 104.81 130.254C105 130.341 105.187 130.427 105.369 130.514C105.802 130.713 106.222 130.956 106.63 131.242C107.046 131.519 107.388 131.853 107.657 132.243C107.934 132.624 108.073 133.079 108.073 133.608Z" fill="white"/>
</g>
<defs>
<clipPath id="clip0_1001_2">
<rect width="144" height="144" fill="white"/>
</clipPath>
</defs>
</svg>
