<?xml version="1.0" encoding="UTF-8"?>
<svg width="144px" height="120px" viewBox="0 0 144 120" version="1.1" xmlns="http://www.w3.org/2000/svg" xmlns:xlink="http://www.w3.org/1999/xlink">
    <!-- Generator: Sketch 52.6 (67491) - http://www.bohemiancoding.com/sketch -->
    <title>Artboard</title>
    <desc>Created with Sketch.</desc>
    <g id="Artboard" stroke="none" stroke-width="1" fill="none" fill-rule="evenodd">
        <g id="Group">
            <rect id="Rectangle-Copy-25" fill="#AC0600" fill-rule="nonzero" x="0" y="0" width="144" height="120"></rect>
            <g id="Group-7" transform="translate(25.000000, 46.000000)" fill="#FFFFFF">
                <polygon id="Fill-1" points="0 0 0 2.74174088 2.8549059 2.74174088 2.8549059 26.2577867 0 26.2577867 0 29 13.3363941 29 13.3363941 26.2577867 9.46188994 26.2577867 9.46188994 15.9956668 14.8452325 15.9956668 14.8452325 18.4884448 17.863373 18.4884448 17.863373 10.5113977 14.8452325 10.5113977 14.8452325 13.0041757 9.46188994 13.0041757 9.46188994 2.99117615 17.985799 2.99117615 17.985799 7.72776933 22.7166667 7.72776933 22.7166667 0"></polygon>
                <polygon id="Fill-2" points="25.85 0 25.85 2.74174088 28.7550971 2.74174088 28.7550971 26.2577867 25.85 26.2577867 25.85 29 38.3833333 29 38.3833333 26.2577867 35.4782363 26.2577867 35.4782363 2.74174088 38.3833333 2.74174088 38.3833333 0"></polygon>
                <path d="M41.5166667,26.2577867 L44.4157427,26.2577867 L44.4157427,2.74189835 L41.5166667,2.74189835 L41.5166667,2.84217094e-14 L55.0179568,2.84217094e-14 C62.9281381,2.84217094e-14 68.9333333,5.27656386 68.9333333,14.5 C68.9333333,23.7234361 62.9281381,29 55.0179568,29 L41.5166667,29 L41.5166667,26.2577867 Z M51.1249477,26.0086664 L53.8168235,26.0086664 C59.3664923,26.0086664 61.5614016,23.9725565 61.5614016,18.3223121 L61.5614016,10.6776879 C61.5614016,5.02712858 59.3664923,2.99133362 53.8168235,2.99133362 L51.1249477,2.99133362 L51.1249477,26.0086664 Z" id="Combined-Shape"></path>
                <polygon id="Fill-6" points="70.5 26.2577867 73.4115477 26.2577867 73.4115477 2.74189835 70.5 2.74189835 70.5 0 93.6673688 0 93.6673688 7.72776933 88.84264 7.72776933 88.84264 2.99133362 80.1496153 2.99133362 80.1496153 12.3809025 85.6399218 12.3809025 85.6399218 9.88812446 88.7177851 9.88812446 88.7177851 17.8653291 85.6399218 17.8653291 85.6399218 15.372551 80.1496153 15.372551 80.1496153 26.0086664 89.1752712 26.0086664 89.1752712 20.4410947 94 20.4410947 94 29 70.5 29"></polygon>
            </g>
        </g>
    </g>
</svg>