<?xml version="1.0" encoding="UTF-8"?>
<svg width="30px" height="30px" viewBox="0 0 30 30" version="1.1" xmlns="http://www.w3.org/2000/svg" xmlns:xlink="http://www.w3.org/1999/xlink">
    <!-- Generator: Sketch 52.6 (67491) - http://www.bohemiancoding.com/sketch -->
    <title>Artboard</title>
    <desc>Created with Sketch.</desc>
    <g id="Artboard" stroke="none" stroke-width="1" fill="none" fill-rule="evenodd">
        <path d="M5.40029633,3 L24.600127,3 C25.9200783,3 27,4.08034502 27,5.40029633 L27,24.600127 C27,25.9205016 25.9200783,27 24.600127,27 L5.40029633,27 C4.07992168,27 3,25.9205016 3,24.600127 L3,5.40029633 C3,4.08034502 4.07992168,3 5.40029633,3 Z M22.3875,22.14 L22.3875,16.7042308 C22.3875,14.0348077 21.8111538,11.9826923 18.6928846,11.9826923 C17.1940385,11.9826923 16.1884615,12.8042308 15.7776923,13.5836538 L15.7355769,13.5836538 L15.7355769,12.2284615 L12.7828846,12.2284615 L12.7828846,22.14 L15.8596154,22.14 L15.8596154,17.2378846 C15.8596154,15.9444231 16.1042308,14.6919231 17.7069231,14.6919231 C19.2876923,14.6919231 19.3078846,16.1705769 19.3078846,17.3198077 L19.3078846,22.14 L22.3875,22.14 Z M9.30923077,10.8744231 C10.2946154,10.8744231 11.0948077,10.0742308 11.0948077,9.08769231 C11.0948077,8.10173077 10.2946154,7.30153846 9.30923077,7.30153846 C8.31980769,7.30153846 7.5225,8.10173077 7.5225,9.08769231 C7.5225,10.0742308 8.31980769,10.8744231 9.30923077,10.8744231 Z M7.76711538,22.14 L10.8501923,22.14 L10.8501923,12.2284615 L7.76711538,12.2284615 L7.76711538,22.14 Z" id="Combined-Shape-Copy" fill="#4D4D4D"></path>
    </g>
</svg>