<?xml version="1.0" encoding="UTF-8"?>
<svg width="30px" height="30px" viewBox="0 0 30 30" version="1.1" xmlns="http://www.w3.org/2000/svg" xmlns:xlink="http://www.w3.org/1999/xlink">
    <!-- Generator: Sketch 52.6 (67491) - http://www.bohemiancoding.com/sketch -->
    <title>Artboard Copy 3</title>
    <desc>Created with Sketch.</desc>
    <g id="Artboard-Copy-3" stroke="none" stroke-width="1" fill="none" fill-rule="evenodd">
        <path d="M10.5387085,25 C19.595488,25 24.5514437,17.302887 24.5514437,10.6404139 C24.5514437,10.4235082 24.5514437,10.2066026 24.5408604,9.98969698 C25.500979,9.28215084 26.3374843,8.38676442 27,7.37251372 C26.116928,7.77639199 25.1665461,8.04231829 24.167481,8.16985879 C25.1855961,7.5490749 25.9632583,6.55608095 26.3374843,5.37481292 C25.3854091,5.95611999 24.3300407,6.36867449 23.2073625,6.59469015 C22.3031238,5.61167386 21.0263525,5 19.614538,5 C16.8971654,5 14.6877921,7.26406091 14.6877921,10.0491291 C14.6877921,10.4425959 14.7360521,10.8260851 14.812252,11.2013318 C10.7211649,10.99397 7.09024042,8.97674772 4.66073413,5.9257532 C4.23740144,6.67407761 3.99821847,7.53953105 3.99821847,8.46485044 C3.99821847,10.2170141 4.87113047,11.7618159 6.18811846,12.6676138 C5.38166969,12.6385485 4.62221085,12.4112314 3.96011853,12.0368523 L3.96011853,12.1062621 C3.96011853,14.5468842 5.6589526,16.5949071 7.90642584,17.0564822 C7.4940998,17.1753465 7.06103046,17.233911 6.61018115,17.233911 C6.2935283,17.233911 5.98618877,17.2044119 5.68816256,17.1462812 C6.31257827,19.1522244 8.13756548,20.6098302 10.2880955,20.649307 C8.59815145,22.00757 6.47598469,22.8144589 4.17093821,22.8144589 C3.77766215,22.8144589 3.38311608,22.7945036 3,22.7454829 C5.16915669,24.1618767 7.76333939,25 10.5387085,25" id="Fill-11-Copy" fill="#4D4D4D"></path>
    </g>
</svg>