<?xml version="1.0" encoding="UTF-8"?>
<svg width="28px" height="22px" viewBox="0 0 28 22" version="1.1" xmlns="http://www.w3.org/2000/svg" xmlns:xlink="http://www.w3.org/1999/xlink">
    <!-- Generator: Sketch 52.6 (67491) - http://www.bohemiancoding.com/sketch -->
    <title>baseline-mail_outline-24px</title>
    <desc>Created with Sketch.</desc>
    <g id="Page-1" stroke="none" stroke-width="1" fill="none" fill-rule="evenodd">
        <g id="Menú" transform="translate(-1002.000000, -49.000000)">
            <g id="baseline-mail_outline-24px" transform="translate(1000.000000, 44.000000)">
                <polygon id="Path" points="0 0 32 0 32 32 0 32"></polygon>
                <path d="M26.6666667,5.33333333 L5.33333333,5.33333333 C3.86666667,5.33333333 2.68,6.53333333 2.68,8 L2.66666667,24 C2.66666667,25.4666667 3.86666667,26.6666667 5.33333333,26.6666667 L26.6666667,26.6666667 C28.1333333,26.6666667 29.3333333,25.4666667 29.3333333,24 L29.3333333,8 C29.3333333,6.53333333 28.1333333,5.33333333 26.6666667,5.33333333 Z M26.6666667,24 L5.33333333,24 L5.33333333,10.6666667 L16,17.3333333 L26.6666667,10.6666667 L26.6666667,24 Z M16,14.6666667 L5.33333333,8 L26.6666667,8 L16,14.6666667 Z" id="Shape" fill="#222222" fill-rule="nonzero"></path>
            </g>
        </g>
    </g>
</svg>