<?xml version="1.0" encoding="UTF-8"?>
<svg width="96px" height="20px" viewBox="0 0 96 20" version="1.1" xmlns="http://www.w3.org/2000/svg" xmlns:xlink="http://www.w3.org/1999/xlink">
    <!-- Generator: Sketch 52.6 (67491) - http://www.bohemiancoding.com/sketch -->
    <title>Group 3</title>
    <desc>Created with Sketch.</desc>
    <g id="Page-1" stroke="none" stroke-width="1" fill="none" fill-rule="evenodd">
        <g id="Artboard" transform="translate(-16.000000, -14.000000)" fill="#FFFFFF">
            <g id="Group-3" transform="translate(16.000000, 14.000000)">
                <g id="Group" transform="translate(0.000000, 3.000000)">
                    <rect id="Rectangle-Copy-4" x="0" y="6" width="16" height="2"></rect>
                    <rect id="Rectangle-Copy-4" x="0" y="0" width="16" height="2"></rect>
                    <rect id="Rectangle-Copy-4" x="0" y="12" width="16" height="2"></rect>
                </g>
                <g id="Group-7-Copy" transform="translate(32.000000, 0.000000)">
                    <polygon id="Fill-1" points="0 0 0 1.89085578 1.94376572 1.89085578 1.94376572 18.1088184 0 18.1088184 0 20 9.08009808 20 9.08009808 18.1088184 6.44213783 18.1088184 6.44213783 11.0314944 10.1073923 11.0314944 10.1073923 12.7506516 12.1622965 12.7506516 12.1622965 7.24923979 10.1073923 7.24923979 10.1073923 8.96839705 6.44213783 8.96839705 6.44213783 2.0628801 12.2456504 2.0628801 12.2456504 5.32949609 15.4666667 5.32949609 15.4666667 0"></polygon>
                    <polygon id="Fill-2" points="17.6 0 17.6 1.89085578 19.5779384 1.89085578 19.5779384 18.1088184 17.6 18.1088184 17.6 20 26.1333333 20 26.1333333 18.1088184 24.1553949 18.1088184 24.1553949 1.89085578 26.1333333 1.89085578 26.1333333 0"></polygon>
                    <path d="M28.2666667,18.1088184 L30.2405057,18.1088184 L30.2405057,1.89096438 L28.2666667,1.89096438 L28.2666667,2.84217094e-14 L37.4590344,2.84217094e-14 C42.8446897,2.84217094e-14 46.9333333,3.63900956 46.9333333,10 C46.9333333,16.3609904 42.8446897,20 37.4590344,20 L28.2666667,20 L28.2666667,18.1088184 Z M34.808475,17.9370113 L36.6412416,17.9370113 C40.4197395,17.9370113 41.9141458,16.5327976 41.9141458,12.6360773 L41.9141458,7.36392268 C41.9141458,3.46698523 40.4197395,2.06298871 36.6412416,2.06298871 L34.808475,2.06298871 L34.808475,17.9370113 Z" id="Combined-Shape"></path>
                    <polygon id="Fill-6" points="48 18.1088184 49.9823303 18.1088184 49.9823303 1.89096438 48 1.89096438 48 0 63.7735277 0 63.7735277 5.32949609 60.4886059 5.32949609 60.4886059 2.06298871 54.5699508 2.06298871 54.5699508 8.53855343 58.3080319 8.53855343 58.3080319 6.81939618 60.4035983 6.81939618 60.4035983 12.3209166 58.3080319 12.3209166 58.3080319 10.6017593 54.5699508 10.6017593 54.5699508 17.9370113 60.7150783 17.9370113 60.7150783 14.0973067 64 14.0973067 64 20 48 20"></polygon>
                </g>
            </g>
        </g>
    </g>
</svg>