<?xml version="1.0" encoding="UTF-8"?>
<svg width="14px" height="17px" viewBox="0 0 14 17" version="1.1" xmlns="http://www.w3.org/2000/svg" xmlns:xlink="http://www.w3.org/1999/xlink">
    <!-- Generator: Sketch 52.6 (67491) - http://www.bohemiancoding.com/sketch -->
    <title>Shape</title>
    <desc>Created with Sketch.</desc>
    <g id="Page-1" stroke="none" stroke-width="1" fill="none" fill-rule="evenodd">
        <g id="Artículo" transform="translate(-401.000000, -628.000000)" fill="#333333" fill-rule="nonzero">
            <g id="baseline-timer-24px" transform="translate(399.000000, 628.000000)">
                <path d="M11.25,0.75 L6.75,0.75 L6.75,2.25 L11.25,2.25 L11.25,0.75 Z M8.25,10.5 L9.75,10.5 L9.75,6 L8.25,6 L8.25,10.5 Z M14.2725,5.5425 L15.3375,4.4775 C15.015,4.095 14.6625,3.735 14.28,3.42 L13.215,4.485 C12.0525,3.555 10.59,3 9,3 C5.2725,3 2.25,6.0225 2.25,9.75 C2.25,13.4775 5.265,16.5 9,16.5 C12.735,16.5 15.75,13.4775 15.75,9.75 C15.75,8.16 15.195,6.6975 14.2725,5.5425 Z M9,15 C6.0975,15 3.75,12.6525 3.75,9.75 C3.75,6.8475 6.0975,4.5 9,4.5 C11.9025,4.5 14.25,6.8475 14.25,9.75 C14.25,12.6525 11.9025,15 9,15 Z" id="Shape"></path>
            </g>
        </g>
    </g>
</svg>