<?xml version="1.0" encoding="UTF-8"?>
<svg width="30px" height="30px" viewBox="0 0 30 30" version="1.1" xmlns="http://www.w3.org/2000/svg" xmlns:xlink="http://www.w3.org/1999/xlink">
    <!-- Generator: Sketch 52.6 (67491) - http://www.bohemiancoding.com/sketch -->
    <title>Artboard Copy 4</title>
    <desc>Created with Sketch.</desc>
    <g id="Artboard-Copy-4" stroke="none" stroke-width="1" fill="none" fill-rule="evenodd">
        <path d="M28.4147924,8.12296399 C29,10.3511706 29,15 29,15 C29,15 29,19.6488294 28.4147924,21.8774704 C28.0930567,23.1066759 27.1441293,24.0748382 25.9394412,24.4032055 C23.7558371,25 15,25 15,25 C15,25 6.24459133,25 4.06055877,24.4032055 C2.85587074,24.0748382 1.90737171,23.1066759 1.58520763,21.8774704 C1,19.6488294 1,15 1,15 C1,15 1,10.3511706 1.58520763,8.12296399 C1.90737171,6.89375842 2.85587074,5.92516179 4.06055877,5.59722886 C6.24459133,5 15,5 15,5 C15,5 23.7558371,5 25.9394412,5.59722886 C27.1441293,5.92516179 28.0930567,6.89375842 28.4147924,8.12296399 Z M12.3806541,19.1674926 L19.6987483,14.9469305 L12.3806541,10.7254998 L12.3806541,19.1674926 Z" id="Combined-Shape-Copy" fill="#4D4D4D"></path>
    </g>
</svg>