<?xml version="1.0" encoding="UTF-8"?>
<svg width="23px" height="23px" viewBox="0 0 23 23" version="1.1" xmlns="http://www.w3.org/2000/svg" xmlns:xlink="http://www.w3.org/1999/xlink">
    <!-- Generator: Sketch 52.6 (67491) - http://www.bohemiancoding.com/sketch -->
    <title>Group 6 Copy 2</title>
    <desc>Created with Sketch.</desc>
    <g id="Page-1" stroke="none" stroke-width="1" fill="none" fill-rule="evenodd">
        <g id="Menú" transform="translate(-1188.000000, -48.000000)">
            <g id="Group-6-Copy-2" transform="translate(1184.000000, 44.000000)">
                <path d="M20.1997332,18.2557652 L19.17591,18.2557652 L18.813036,17.905851 C20.0830951,16.4284353 20.8477225,14.5103869 20.8477225,12.4238613 C20.8477225,7.77129788 17.0764246,4 12.4238613,4 C7.77129788,4 4,7.77129788 4,12.4238613 C4,17.0764246 7.77129788,20.8477225 12.4238613,20.8477225 C14.5103869,20.8477225 16.4284353,20.0830951 17.905851,18.813036 L18.2557652,19.17591 L18.2557652,20.1997332 L24.7356585,26.6666667 L26.6666667,24.7356585 L20.1997332,18.2557652 L20.1997332,18.2557652 Z M12.4238613,18.2557652 C9.1968744,18.2557652 6.59195731,15.6508481 6.59195731,12.4238613 C6.59195731,9.1968744 9.1968744,6.59195731 12.4238613,6.59195731 C15.6508481,6.59195731 18.2557652,9.1968744 18.2557652,12.4238613 C18.2557652,15.6508481 15.6508481,18.2557652 12.4238613,18.2557652 Z" id="Shape" fill="#222222" fill-rule="nonzero"></path>
                <polygon id="Shape" points="0 0 32 0 32 32 0 32"></polygon>
            </g>
        </g>
    </g>
</svg>